<svg width="19" height="9" viewBox="0 0 19 9" fill="none" xmlns="http://www.w3.org/2000/svg">
<path d="M2.11711 3.44344C2.44545 3.44344 2.73238 3.50851 2.9779 3.63866C3.22341 3.76882 3.41272 3.95221 3.54584 4.18886C3.6819 4.42254 3.74994 4.6932 3.74994 5.00083C3.74994 5.30551 3.6819 5.57617 3.54584 5.81281C3.41272 6.04945 3.22193 6.23285 2.97346 6.363C2.72794 6.49315 2.44249 6.55823 2.11711 6.55823H0.950175V3.44344H2.11711ZM2.06831 5.90155C2.35523 5.90155 2.57856 5.82316 2.7383 5.66639C2.89803 5.50961 2.9779 5.28776 2.9779 5.00083C2.9779 4.7139 2.89803 4.49057 2.7383 4.33084C2.57856 4.17111 2.35523 4.09124 2.06831 4.09124H1.70891V5.90155H2.06831ZM4.02309 5.31586C4.02309 5.06147 4.07042 4.83814 4.16508 4.64587C4.26269 4.4536 4.39432 4.3057 4.55997 4.20217C4.72562 4.09864 4.9105 4.04687 5.1146 4.04687C5.28912 4.04687 5.44146 4.08237 5.57161 4.15336C5.70473 4.22435 5.80678 4.31753 5.87777 4.43289V4.08237H6.6365V6.55823H5.87777V6.2077C5.80382 6.32307 5.70029 6.41624 5.56718 6.48724C5.43703 6.55823 5.28469 6.59372 5.11016 6.59372C4.90902 6.59372 4.72562 6.54196 4.55997 6.43843C4.39432 6.33194 4.26269 6.18256 4.16508 5.99029C4.07042 5.79506 4.02309 5.57025 4.02309 5.31586ZM5.87777 5.3203C5.87777 5.13098 5.82453 4.9816 5.71804 4.87216C5.61451 4.76271 5.48731 4.70799 5.33645 4.70799C5.18559 4.70799 5.05692 4.76271 4.95043 4.87216C4.8469 4.97865 4.79514 5.12655 4.79514 5.31586C4.79514 5.50517 4.8469 5.65603 4.95043 5.76844C5.05692 5.87788 5.18559 5.93261 5.33645 5.93261C5.48731 5.93261 5.61451 5.87788 5.71804 5.76844C5.82453 5.65899 5.87777 5.50961 5.87777 5.3203ZM8.694 4.05574C8.98388 4.05574 9.21461 4.1504 9.38618 4.33971C9.5607 4.52607 9.64796 4.78342 9.64796 5.11176V6.55823H8.89367V5.21381C8.89367 5.04816 8.85077 4.91949 8.76499 4.82779C8.67921 4.73609 8.56385 4.69024 8.4189 4.69024C8.27396 4.69024 8.1586 4.73609 8.07282 4.82779C7.98703 4.91949 7.94414 5.04816 7.94414 5.21381V6.55823H7.18541V4.08237H7.94414V4.41071C8.02105 4.30126 8.12458 4.21548 8.25473 4.15336C8.38489 4.08828 8.53131 4.05574 8.694 4.05574ZM10.0243 5.31586C10.0243 5.06147 10.0717 4.83814 10.1663 4.64587C10.2639 4.4536 10.3956 4.3057 10.5612 4.20217C10.7269 4.09864 10.9117 4.04687 11.1159 4.04687C11.2904 4.04687 11.4427 4.08237 11.5729 4.15336C11.706 4.22435 11.808 4.31753 11.879 4.43289V4.08237H12.6378V6.55823H11.879V6.2077C11.8051 6.32307 11.7015 6.41624 11.5684 6.48724C11.4383 6.55823 11.2859 6.59372 11.1114 6.59372C10.9103 6.59372 10.7269 6.54196 10.5612 6.43843C10.3956 6.33194 10.2639 6.18256 10.1663 5.99029C10.0717 5.79506 10.0243 5.57025 10.0243 5.31586ZM11.879 5.3203C11.879 5.13098 11.8258 4.9816 11.7193 4.87216C11.6158 4.76271 11.4886 4.70799 11.3377 4.70799C11.1868 4.70799 11.0582 4.76271 10.9517 4.87216C10.8482 4.97865 10.7964 5.12655 10.7964 5.31586C10.7964 5.50517 10.8482 5.65603 10.9517 5.76844C11.0582 5.87788 11.1868 5.93261 11.3377 5.93261C11.4886 5.93261 11.6158 5.87788 11.7193 5.76844C11.8258 5.65899 11.879 5.50961 11.879 5.3203ZM14.6953 4.05574C14.9851 4.05574 15.2159 4.1504 15.3874 4.33971C15.5619 4.52607 15.6492 4.78342 15.6492 5.11176V6.55823H14.8949V5.21381C14.8949 5.04816 14.852 4.91949 14.7662 4.82779C14.6805 4.73609 14.5651 4.69024 14.4202 4.69024C14.2752 4.69024 14.1598 4.73609 14.0741 4.82779C13.9883 4.91949 13.9454 5.04816 13.9454 5.21381V6.55823H13.1867V4.08237H13.9454V4.41071C14.0223 4.30126 14.1258 4.21548 14.256 4.15336C14.3861 4.08828 14.5326 4.05574 14.6953 4.05574ZM16.8864 5.93261H17.9601V6.55823H16.0389V5.95479L17.0683 4.70799H16.0478V4.08237H17.938V4.6858L16.8864 5.93261Z" fill="black"/>
<path d="M8.40344 4.5885V6.32551H14.4322V4.5885" stroke="black" stroke-width="0.277921" stroke-linecap="round"/>
</svg>
